<svg id="Layer_1" data-name="Layer 1" xmlns="http://www.w3.org/2000/svg" viewBox="0 0 672.21 143.02"><defs><style>.cls-1{fill:#020101;}</style></defs><title>propeller-logo</title><path class="cls-1" d="M192.34,66.74C181,65.47,171.66,69.07,165,78.68c-0.31.44-.64,0.87-1,1.3l-0.32-.15V68.38H143.39V182.51h21V140.25a1.85,1.85,0,0,1,.48.2,7.89,7.89,0,0,1,.53.71c5.2,8,12.74,11.5,22.07,11.47,12.19,0,21.67-5.16,28.21-15.49,3.35-5.29,5-11.17,5.92-17.34a71,71,0,0,0-.94-27.15C217.32,78.66,206.24,68.3,192.34,66.74Zm4.73,58.57c-3.47,6.78-9.05,9.86-16.83,9.23a16.49,16.49,0,0,1-14.75-11.79,41.39,41.39,0,0,1,.43-26c3.08-9.19,10.37-12.55,19.6-11.24,6.63,0.94,10.29,5.31,12.58,11.16a33.94,33.94,0,0,1,2.26,13C200.28,115.11,199.58,120.4,197.07,125.31Z" transform="translate(-42.4 -39.48)"/><path class="cls-1" d="M274.48,66.51c-9.94-.88-18,2.19-23.55,10.65-1.1,1.66-2.23,3.31-3.59,5.33V68.39H227v81.87h21.51v-1.71c0-12.2,0-24.4,0-36.6a76.1,76.1,0,0,1,.62-9.44c0.84-6.38,4.16-11,10.37-13.13a30.26,30.26,0,0,1,12.59-1.17c0.77,0.07,1.54.1,2.34,0.15V66.51Z" transform="translate(-42.4 -39.48)"/><path class="cls-1" d="M83.17,109.44h0v0h0v0Z" transform="translate(-42.4 -39.48)"/><path class="cls-1" d="M83.25,70.21q0,19.6,0,39.19c0.48,0,1-.07,1.43-0.07h39.53V68.38H83.25C83.25,69.05,83.25,69.63,83.25,70.21Z" transform="translate(-42.4 -39.48)"/><path class="cls-1" d="M43.39,109.32h-1V150.2H83.25V148.5q0-18.29,0-36.58c0-.83,0-1.65-0.08-2.48a10.62,10.62,0,0,0-1.13-.11H43.39Z" transform="translate(-42.4 -39.48)"/><path class="cls-1" d="M661.9,101.33a41.82,41.82,0,0,0-6.74-19.63c-7-10.62-17.3-14.9-29.51-15.54a43.09,43.09,0,0,0-12.78,1.19,34.71,34.71,0,0,0-20.64,14.12c-5.1,7.29-7.09,15.59-7.45,24.3a98.58,98.58,0,0,0,.47,13.2,48.23,48.23,0,0,0,1.83,9,30.64,30.64,0,0,0,10.56,15.86c10.88,8.6,23.24,10.85,36.57,8.22,11.76-2.31,20.2-9.16,25.4-19.93a42.68,42.68,0,0,0,1.84-5.77H639.88c-1.87,2.2-3.31,4.37-5.19,6-5.34,4.69-15.74,4.12-21.28-.21s-6.79-10.22-7.2-16.9h56.26C662.29,110.48,662.29,105.89,661.9,101.33Zm-55-.29c1.14-9.71,6.34-17.59,17.07-17.25,8.56,0.27,15.73,6.25,16,17.25H606.85Z" transform="translate(-42.4 -39.48)"/><path class="cls-1" d="M559.6,150.23h21.31V39.49H559.6V150.23Z" transform="translate(-42.4 -39.48)"/><path class="cls-1" d="M702.91,67.64c-5.36,1.7-9.08,5.39-12.15,9.89-1,1.52-2.05,3.06-3.07,4.59L687.41,82V68.39H667.1v81.79h21.52c0-.66,0-1.2,0-1.74,0-11.65,0-23.3,0-35,0-2.91.07-5.83,0.33-8.72,0.35-4,1.17-7.86,4-10.9,5.28-5.68,12-6.28,19.2-5.43a18.27,18.27,0,0,0,2.45,0V66.49A30,30,0,0,0,702.91,67.64Z" transform="translate(-42.4 -39.48)"/><path class="cls-1" d="M328.91,67.17a59.14,59.14,0,0,0-21.26-.92,36.55,36.55,0,0,0-14.86,5c-7.25,4.43-12,11-15.06,18.68a51.7,51.7,0,0,0-.06,39,38.54,38.54,0,0,0,10.13,14.93c7.45,6.71,16.57,8.86,26.26,9.36,0.64,0,1.28-.06,2.14-0.1,3.61,0.61,7.3-.4,11-1.12a33.2,33.2,0,0,0,18.6-9.92c7.25-7.84,10.94-17.24,11.79-27.76,0.9-11.15-1.05-21.7-7.07-31.33A34.24,34.24,0,0,0,328.91,67.17Zm3.94,56.63c-3.56,8.66-10.67,12.07-19.4,11.23-7.73-.75-12.71-5.13-15.11-12.28a39.74,39.74,0,0,1,.41-27.64c3-7.78,9.14-11.47,17.48-11.27,9.42,0.23,15.73,5.52,17.91,15.35,0.75,3.4,1,6.92,1.43,10.38C335.21,114.46,334.73,119.24,332.85,123.8Z" transform="translate(-42.4 -39.48)"/><path class="cls-1" d="M528.48,150.22h21.29V39.48H528.48V150.22Z" transform="translate(-42.4 -39.48)"/><path class="cls-1" d="M516.48,82.66a32,32,0,0,0-14.69-13,43.81,43.81,0,0,0-29-2,34,34,0,0,0-22.14,17.59c-3.48,6.49-4.9,13.55-5.25,20.83a72.77,72.77,0,0,0,1,16.95c2.36,12.6,9.5,21.28,21.1,26.42,2.23,1,4.56,1.74,6.87,2.62a17.18,17.18,0,0,1,1.86.16A48.13,48.13,0,0,0,494.9,152a35.3,35.3,0,0,0,23.51-16.28,20.38,20.38,0,0,0,3.49-9.43H500c-2.76,6.2-7.67,9-14.22,9.25-8.31.33-14.74-4-17.44-11.86a25.59,25.59,0,0,1-1.35-8.46h55.93c0-3.65.13-7.11,0-10.55A44.6,44.6,0,0,0,516.48,82.66ZM467.62,101c0.79-8.59,5.66-17.31,16.25-17.25,9.79,0.06,16.57,6.78,16.84,17.25H467.62Z" transform="translate(-42.4 -39.48)"/><path class="cls-1" d="M435,82.64c-6.36-10.18-15.51-15.77-27.61-16.13-8.19-.24-15.35,2.27-21,8.45-1.44,1.59-2.73,3.32-4.28,5.23V68.38H361.82V182.5H383V140c0.42,0.56.57,0.75,0.71,0.95,4.56,7,11,10.92,19.31,11.53,11.61,0.85,21.35-2.83,28.78-12,5.24-6.47,7.55-14.11,8.53-22.19a71.86,71.86,0,0,0-.56-22.69A37.86,37.86,0,0,0,435,82.64ZM418.76,109c0,6.89-1,12.83-4.3,18.16a15.3,15.3,0,0,1-13.14,7.48c-9.88.37-16.17-5.61-18.1-14.09a43.21,43.21,0,0,1,.91-23.23c3.09-9.5,10.32-13.08,19.68-11.8,7.18,1,10.82,5.85,13.07,12.16A31.85,31.85,0,0,1,418.76,109Z" transform="translate(-42.4 -39.48)"/></svg>